<svg xmlns="http://www.w3.org/2000/svg" viewBox="0 0 74.91 54.52"><title>Arcade</title><g id="Capa_2" data-name="Capa 2"><g id="Capa_1-2" data-name="Capa 1"><path d="M20.37,47.72c-1.92,0-3.85,0-5.78,0-.77,0-1-.26-1-1,0-3.86,0-7.72,0-11.57,0-.81-.25-1.07-1-1-1.5,0-3,.06-4.5,0-.87,0-1.17.21-1.15,1.12,0,3.76,0,7.53,0,11.29,0,.91-.22,1.26-1.18,1.22-1.62-.08-3.24,0-4.86,0-.68,0-.91-.24-.91-.91q0-9.37,0-18.74c0-.69.27-.9.93-.89,1.62,0,3.24,0,4.86,0,.83,0,1.06-.27,1-1.06-.05-1.59,0-3.18,0-4.77,0-.78.28-1,1-1,1.62,0,3.25,0,4.87,0,.74,0,1-.26.93-1,0-1.62,0-3.25,0-4.87,0-.77.28-1,1-1,1.62,0,3.24,0,4.87,0,.73,0,.95-.26.93-1,0-1.89,0-3.79,0-5.69l.15-.16c2,0,3.92,0,5.87,0,.67,0,.93.22.91.9,0,1.68,0,3.36,0,5,0,.62.18.87.83.87H46.76c.66,0,.85-.25.84-.87,0-1.68,0-3.36,0-5,0-.68.25-.91.91-.9,2,0,3.91,0,5.87,0l.16.16c0,1.9,0,3.8,0,5.69,0,.71.2,1,.94,1,1.62,0,3.24,0,4.87,0,.74,0,1,.22,1,1,0,1.62,0,3.25,0,4.87,0,.71.19,1,.93,1,1.63,0,3.25,0,4.87,0,.74,0,1,.22,1,1,0,1.59,0,3.18,0,4.77,0,.79.2,1.09,1,1.06,1.62-.05,3.25,0,4.87,0,.66,0,.92.2.92.89q0,9.38,0,18.74c0,.67-.23.92-.91.91-1.68,0-3.36,0-5,0-.77,0-1-.29-1-1,0-3.83,0-7.66,0-11.48,0-.91-.29-1.16-1.16-1.12-1.53.06-3.06,0-4.59,0-.72,0-1,.22-1,1,0,3.82,0,7.65,0,11.48,0,.92-.25,1.23-1.19,1.2-1.87-.07-3.73,0-5.6,0l-.16-.16V42.24c0-1.32,0-1.32-1.28-1.32H26c-1.46,0-2.94,0-4.4,0-.91,0-1.15.3-1.12,1.16.06,1.83,0,3.67,0,5.5Zm3.41-20.53c.88,0,1.77,0,2.66,0,.55,0,.77-.2.76-.75,0-1.71,0-3.43,0-5.14,0-.53-.15-.79-.73-.79-1.74,0-3.49,0-5.23,0-.5,0-.72.19-.71.7,0,1.75,0,3.49,0,5.23,0,.57.25.76.78.74C22.13,27.18,23,27.2,23.78,27.19Zm30.6-3.26c0-.85,0-1.71,0-2.57,0-.56-.14-.85-.77-.84-1.71,0-3.43,0-5.14,0-.54,0-.77.19-.77.75,0,1.74,0,3.49,0,5.23,0,.52.23.7.72.7,1.75,0,3.49,0,5.24,0,.58,0,.73-.27.72-.79C54.37,25.58,54.38,24.76,54.38,23.93Z"/><path d="M20.53,47.56c4.13,0,8.27,0,12.4,0,.9,0,1.26.22,1.21,1.18-.07,1.62,0,3.24,0,4.86,0,.68-.24.92-.91.91q-6,0-11.94,0c-.69,0-.9-.27-.89-.92,0-2,0-3.92,0-5.88Z"/><path d="M54.54,47.72c0,2,0,3.92,0,5.88,0,.65-.2.93-.89.92q-6,0-11.94,0c-.67,0-.92-.23-.91-.91,0-1.68,0-3.36,0-5,0-.78.29-1,1-1,4.19,0,8.39,0,12.58,0Z"/><path d="M20.4,7c-2,0-3.92,0-5.88,0-.66,0-.94-.2-.93-.89,0-1.74,0-3.49,0-5.23,0-.59.22-.82.81-.81,1.75,0,3.49,0,5.24,0,.69,0,.89.27.89.93,0,2,0,3.91,0,5.87Z"/><path d="M54.36,6.8c0-2,0-3.92,0-5.87,0-.66.2-.94.89-.93C57,0,58.76,0,60.5,0c.59,0,.82.22.81.81,0,1.74,0,3.49,0,5.23,0,.69-.27.9-.93.89-2,0-3.91,0-5.87,0Z"/></g></g></svg>