<svg xmlns="http://www.w3.org/2000/svg" viewBox="0 0 38.99 57.3"><title>Estrategia</title><g id="Capa_2" data-name="Capa 2"><g id="Capa_1-2" data-name="Capa 1"><path d="M19.51,51.34H2.69c-1.58,0-1.76-.23-1.56-1.78A3.8,3.8,0,0,1,4.31,46c1.92-.41,3.29-1.42,3.5-3.58A2.29,2.29,0,0,1,9.12,40.6a4.73,4.73,0,0,0,2.07-2.68,27.71,27.71,0,0,0,1.59-8.6c.08-1.22,0-2.45,0-3.68,0-.6.16-1,.84-1H25.37c.78,0,.82.53.8,1.12a39.45,39.45,0,0,0,.89,9.69,15.7,15.7,0,0,0,1,3.08,4,4,0,0,0,1.73,2,2.77,2.77,0,0,1,1.51,2.25,3.23,3.23,0,0,0,2.25,2.79,8.82,8.82,0,0,0,1.13.38c2.29.66,3.18,1.9,3.2,4.25,0,.87-.34,1.14-1.15,1.13-2.14,0-4.27.07-6.4,0C26.74,51.16,23.12,51.31,19.51,51.34Z"/><path d="M24.66,17.84c1.28.49,2.39.9,3.49,1.33.32.13.81.18.74.65s-.57.34-.9.35H11c-.33,0-.84.15-.93-.32s.47-.55.81-.69c1.09-.43,2.2-.84,3.37-1.28C7.89,12.88,9.44,6,12.68,2.82a9.62,9.62,0,0,1,13.58,0,9.33,9.33,0,0,1,2.85,7.88A9.82,9.82,0,0,1,24.66,17.84Z"/><path d="M19.49,57.3c-5.61,0-11.21,0-16.82,0A2.43,2.43,0,0,1,.29,53.75a2.43,2.43,0,0,1,2.2-1.35c.72,0,1.44,0,2.17,0h30.7c.4,0,.8,0,1.19,0A2.46,2.46,0,0,1,39,54.93a2.37,2.37,0,0,1-2.57,2.36C30.77,57.31,25.13,57.3,19.49,57.3Z"/><path d="M19.54,21.33h9a8.42,8.42,0,0,1,.87,0,1.06,1.06,0,0,1,1.07,1,1.08,1.08,0,0,1-.93,1.16,4.22,4.22,0,0,1-1.07.08q-8.94,0-17.88,0c-1.42,0-2.15-.4-2.05-1.19.16-1.21,1.14-1.09,2-1.09Z"/></g></g></svg>