<svg xmlns="http://www.w3.org/2000/svg" viewBox="0 0 465.25 61.25"><defs><style>.cls-1{fill:#fff;}</style></defs><title>Pikgamelogo</title><g id="Capa_2" data-name="Capa 2"><g id="Capa_1-2" data-name="Capa 1"><path class="cls-1" d="M0,61.25V0H52.5V8.75h8.75V35H52.5v8.75h-35v17.5ZM17.5,35H43.75V8.75H17.5Z"/><path class="cls-1" d="M62.75,61.25V52.5h17.5V26.25H71.5V17.5H97.75v35h17.5v8.75Zm17.5-52.5V0h17.5V8.75Z"/><path class="cls-1" d="M124,61.25V0h17.5V35H159V26.25h8.75V17.5h17.5v8.75H176.5V35h-8.75v8.75h8.75V52.5h8.75v8.75h-17.5V52.5H159V43.75H141.5v17.5Z"/><path class="cls-1" d="M211.5,61.25V52.5h-8.75V43.75H194V17.5h8.75V8.75h8.75V0h43.75V8.75h-35V17.5H211.5V43.75h8.75V52.5h17.5V35H229V26.25h26.25v35Z"/><path class="cls-1" d="M272.75,61.25V52.5H264V43.75h8.75V35h35V26.25h-35V17.5H316.5v8.75h8.75v35Zm8.75-8.75h26.25V43.75H281.5Z"/><path class="cls-1" d="M334,61.25V17.5h52.5v8.75h8.75v35h-17.5v-35H369v35H351.5v-35h-8.75v35Z"/><path class="cls-1" d="M412.75,61.25V52.5H404V26.25h8.75V17.5H456.5v8.75h8.75v17.5H421.5V52.5h35v8.75ZM421.5,35h26.25V26.25H421.5Z"/></g></g></svg>