<svg xmlns="http://www.w3.org/2000/svg" viewBox="0 0 53.36 53.33"><title>Recurso 3</title><g id="Capa_2" data-name="Capa 2"><g id="Capa_1-2" data-name="Capa 1"><path d="M22.68,53.06a26.14,26.14,0,0,1-3.51-.77A26.82,26.82,0,0,1,7.41,45.16,1.19,1.19,0,0,1,7,44a21.87,21.87,0,0,1,2.87-7.62A55.79,55.79,0,0,1,20.09,24.1a96.52,96.52,0,0,1,10.78-8.78.85.85,0,0,1,1.34.13,34.22,34.22,0,0,1,2.7,3.19c.17.24.4.47.05.74-2.51,2-3.61,4.77-4.46,7.7-1.26,4.34-2.09,8.8-3.23,13.18a83.45,83.45,0,0,1-3.64,11.67c-.11.27-.24.53-.37.79A.52.52,0,0,1,22.68,53.06Z"/><path d="M26.21,10.4a.71.71,0,0,1,.49.21l2.57,2.12c.39.31.26.51-.09.75a85.46,85.46,0,0,0-8.37,6.57C15.91,24.42,11.37,29.11,8,34.8a27.68,27.68,0,0,0-2.83,6.36c-.06.22,0,.57-.34.59s-.35-.3-.48-.5A26.43,26.43,0,0,1,.13,29.32,27.53,27.53,0,0,1,.82,20a1.43,1.43,0,0,1,.82-1,35.28,35.28,0,0,1,9.08-2.75,63.34,63.34,0,0,0,7.59-1.65,27.41,27.41,0,0,0,7.28-3.83l.45-.29A1.15,1.15,0,0,1,26.21,10.4Z"/><path d="M27.5,53.32c-1.76,0-1.75,0-1.12-1.56a111.14,111.14,0,0,0,4-13.73c.89-3.61,1.58-7.28,2.68-10.84A12,12,0,0,1,35.72,22l.29-.28c.54-.51.62-.5,1,.14a43.76,43.76,0,0,1,2.4,5.26,61.94,61.94,0,0,1,3.49,15.19c.17,1.52.25,3,.37,4.57a1.19,1.19,0,0,1-.57,1.17,26.47,26.47,0,0,1-13.17,5.12c-.33,0-.66.09-1,.11S27.83,53.32,27.5,53.32Z"/><path d="M42.79,19.41a8.16,8.16,0,0,1,4.91,2.2,40.88,40.88,0,0,1,5.39,5.69,1.45,1.45,0,0,1,.27,1.06,26.73,26.73,0,0,1-7,16.43c-.16.17-.31.49-.56.4s-.18-.46-.2-.71A60.91,60.91,0,0,0,39.85,22c-.23-.45-.47-.9-.73-1.34s-.11-.58.29-.68A18,18,0,0,1,42.79,19.41Z"/><path d="M14.13,3.19a4.13,4.13,0,0,1,.42.14,58.17,58.17,0,0,1,9.06,5.05c.44.3.38.49,0,.76a24.13,24.13,0,0,1-9.78,4,69.59,69.59,0,0,0-9.47,2.1L3,15.7c-.16.06-.35.2-.49,0s0-.33.09-.48A25.78,25.78,0,0,1,6.31,9.4,27.06,27.06,0,0,1,13.2,3.59,2.29,2.29,0,0,1,14.13,3.19Z"/><path d="M53.13,23.26c-.39-.08-.51-.34-.69-.53a20.79,20.79,0,0,0-6.28-5.05,8.83,8.83,0,0,0-5.53-.51,15.34,15.34,0,0,0-2.51.62.71.71,0,0,1-1-.28,24.13,24.13,0,0,0-3-3.55c-.33-.32-.34-.55.08-.83A25.72,25.72,0,0,1,46.08,8.89a.77.77,0,0,1,.77.22A26.35,26.35,0,0,1,53.13,22.9C53.14,23,53.13,23.11,53.13,23.26Z"/><path d="M32.35.56a24.37,24.37,0,0,1,4.76,1.49,26.47,26.47,0,0,1,6.52,4c.17.15.49.26.4.55s-.38.19-.59.22a27.64,27.64,0,0,0-10.91,4.5.89.89,0,0,1-1.28-.08c-.82-.74-1.68-1.45-2.54-2.14-.37-.3-.39-.53,0-.84a14.92,14.92,0,0,0,2-2.1,6.48,6.48,0,0,0,1.19-4.39c0-.26,0-.53,0-.79S32.06.49,32.35.56Z"/><path d="M26.69,0h2.06c.43,0,.64.22.64.66,0,.73,0,1.46,0,2.19a3,3,0,0,1-.74,1.88c-.6.71-1.29,1.34-1.95,2-.39.39-.71.27-1.1,0a65.43,65.43,0,0,0-7.81-4.66c-.15-.08-.4-.1-.4-.29s.28-.25.45-.31A24.32,24.32,0,0,1,26.69,0Z"/></g></g></svg>