<svg xmlns="http://www.w3.org/2000/svg" viewBox="0 0 93.73 93.74"><title>Rompecabezas</title><g id="Capa_2" data-name="Capa 2"><g id="Capa_1-2" data-name="Capa 1"><path d="M29.14,20.21a12.24,12.24,0,0,1-1.21-1.06A11.39,11.39,0,0,1,27,5.23a11.07,11.07,0,0,1,11.76-5A10.91,10.91,0,0,1,47.8,8.73a11,11,0,0,1-3.11,11.05c-.16.15-.48.28-.39.52s.42.13.64.13H72.73c.38,0,.58.16.57.56,0,.21,0,.43,0,.64V48.73c0,.24-.12.6.13.69s.37-.27.54-.44A11.55,11.55,0,1,1,86.59,67.77c-4.61,1.83-8.75.92-12.42-2.32l-.09-.08c-.23-.19-.35-.67-.67-.52s-.1.57-.11.87v27c0,1,0,1-1,1H41.94c-.53,0-.59-.15-.39-.61,1.14-2.61,2.39-5.18,3.38-7.84a8.86,8.86,0,0,0-8.15-12,9,9,0,0,0-8.52,5.79,9.33,9.33,0,0,0,.55,7.54c1,2.09,1.89,4.24,2.82,6.36.28.66.23.72-.48.72H.78C0,93.73,0,93.73,0,93V21.24c0-.79,0-.8.83-.8H29ZM3.91,57.13V88.84c0,1,0,1,1,1H25.45c.31,0,.44-.11.29-.43s-.29-.76-.47-1.13a13.34,13.34,0,0,1-1.33-8A12.83,12.83,0,1,1,49.15,85a25.3,25.3,0,0,1-1.57,4.15c-.26.61-.26.64.43.64.15,0,.31,0,.47,0h20.3c.36,0,.55-.13.53-.51,0-.2,0-.39,0-.59q0-12,0-24a3.6,3.6,0,0,1,.49-2,4.55,4.55,0,0,1,5.82-1.39,7.53,7.53,0,0,1,1.27,1.19,7.22,7.22,0,0,0,5.51,2.15A7.46,7.46,0,0,0,89.23,60,7.71,7.71,0,0,0,86,50.52a7.5,7.5,0,0,0-9.53,1.54,4,4,0,0,1-1,.9,4,4,0,0,1-4.24,0,3.86,3.86,0,0,1-2-3.53c0-8,0-16,0-24,0-.94,0-.95-.93-.95-8,0-16.07,0-24.1,0a4.15,4.15,0,0,1-4-4,4.19,4.19,0,0,1,1.5-3.35A7.48,7.48,0,0,0,43.5,8.26,7.58,7.58,0,0,0,33,4.84a7.28,7.28,0,0,0-4,7,7.18,7.18,0,0,0,2.53,5.4,4.24,4.24,0,0,1,1.18,1.5,4.21,4.21,0,0,1-3.83,5.76c-8-.12-16,0-24,0-.93,0-.93,0-.93.94Z"/></g></g></svg>